
<svg id="Layer_1" enable-background="new 0 0 512 512" height="512" viewBox="0 0 512 512" width="512" xmlns="http://www.w3.org/2000/svg">
<rect width="512" height="512" rx="100" fill="#7ADB78"/>
<g transform="translate(100 76.8) scale(11)" id="_x30_3"><path clip-rule="evenodd" fill-rule="evenodd" d="m17 2h-12c-1.6568604 0-3 1.3431396-3 3v22c0 1.6568604 1.3431396 3 3 3h12c1.6568604 0 3-1.3431396 3-3v-22c0-1.6568604-1.3431396-3-3-3zm2 24.5c0 1.378418-1.1210938 2.5-2.5 2.5h-11c-1.378418 0-2.5-1.121582-2.5-2.5v-21c0-1.378418 1.121582-2.5 2.5-2.5h11c1.3789063 0 2.5 1.121582 2.5 2.5z"/><path clip-rule="evenodd" fill-rule="evenodd" d="m16.5 4h-3.5c0 1.1045532-.8954468 2-2 2s-2-.8954468-2-2h-3.5c-.8271484 0-1.5.6728516-1.5 1.5v21c0 .8271484.6728516 1.5 1.5 1.5h11c.8271484 0 1.5-.6728516 1.5-1.5v-21c0-.8271484-.6728516-1.5-1.5-1.5zm-6.6708984 15.1235352c.2080078.1821289.2290039.4980469.0473633.7055664-.0991211.1132812-.2373047.1708984-.3764649.1708984-.1171875 0-.234375-.0405273-.3291016-.1235352l-4-3.5c-.1088867-.0952148-.1708984-.2324218-.1708984-.3764648s.0620117-.28125.1708984-.3764648l4-3.5c.2080078-.1821289.5234375-.1621094.7055664.0473633.1816406.2075195.1606445.5234375-.0473633.7055664l-3.5698242 3.1235351zm7-2.7470704-4 3.5c-.0947266.0830079-.2119141.1235352-.3291016.1235352-.1391602 0-.2773438-.0576172-.3764648-.1708984-.1816406-.2075195-.1606445-.5234375.0473633-.7055664l3.5698242-3.1235352-3.5698242-3.1235352c-.2080078-.1821289-.2290039-.4980469-.0473633-.7055664.1821289-.2094727.4975586-.2294922.7055664-.0473633l4 3.5c.1088867.0952149.1708984.2324219.1708984.3764649s-.0620117.28125-.1708984.3764648z"/><path clip-rule="evenodd" fill-rule="evenodd" d="m29.4912109 17.8969727-1.4091797-.7949219c.0546876-.3720703.0820313-.7402344.0820313-1.1020508s-.0273438-.7299805-.0820313-1.1020508l1.4091797-.7949219c.234375-.1323242.4052734-.3530273.4746094-.6123047.0693359-.2597656.0322266-.5361328-.1044922-.7675781l-2.046875-3.4638672c-.2763672-.4677734-.8759766-.6298828-1.3525391-.3623047l-1.4335938.809082c-.6044922-.4648438-1.2744141-.8447266-1.9814453-1.125v-1.5810546c0-.5522461-.4472656-1-1-1h-1.0468749v6c2.2091675 0 4 1.7908325 4 4s-1.7908325 4-4 4v6h1.046875c.5527344 0 1-.4477539 1-1v-1.5805664c.7070313-.2807617 1.3769531-.6611328 1.9814453-1.1254883l1.4335938.809082c.4765625.2680664 1.0761719.105957 1.3525391-.3623047l2.046875-3.4638672c.1367188-.2314453.1738281-.5078125.1044922-.7675781-.069336-.2592773-.2402345-.4799804-.4746095-.6123046z"/></g></svg>