<svg id="Layer_1" viewBox="0 0 512 512" xmlns="http://www.w3.org/2000/svg" data-name="Layer 1">
  <rect width="512" height="512" rx="100" fill="#AC6AFF"/>
<g transform="translate(76.8 76.8) scale(0.7)">
<path clip-rule="evenodd" d="m129.19 329.48c56.34 0 102.02-45.68 102.02-102.02 0-2.36-.09-4.69-.24-7.01-26.45-18.86-45.18-47.82-50.59-81.25-15.05-8.75-32.53-13.76-51.19-13.76-56.34 0-102.02 45.68-102.02 102.02s45.68 102.02 102.02 102.02zm-62.82-122.49c.61-1.88 2.16-3.16 4.12-3.4l37.93-4.77 16.26-34.6c.84-1.79 2.53-2.86 4.51-2.86s3.67 1.07 4.51 2.86l16.26 34.6 37.93 4.77c1.96.25 3.51 1.52 4.12 3.4s.11 3.82-1.33 5.17l-27.89 26.15 7.19 37.55c.37 1.94-.37 3.81-1.96 4.97-1.6 1.16-3.6 1.29-5.33.33l-33.49-18.44-33.49 18.44c-1.73.95-3.73.83-5.33-.33s-2.34-3.03-1.97-4.97l7.19-37.55-27.89-26.15c-1.44-1.35-1.94-3.29-1.33-5.17zm236.63 20.47c59.61 0 108.23-48.62 108.23-108.23s-48.62-108.23-108.23-108.23-108.23 48.62-108.23 108.23 48.62 108.23 108.23 108.23zm2.19-168.48c7.38-8.79 34.39-17.54 25.54 47.52h11.43c26-.66 26.97 4.93 28.52 15.35 1.42 9.52-5.35 48.21-12.49 55.65-9.59 9.59-47.3 8.92-60.66 6.49-8.93-1.63-13.42-4.43-23.77-5.05l-.11-66.93c30.86-4.63 11.22-28.83 31.54-53.02zm-70.06 54.11c0-2.98 2.44-5.41 5.41-5.41h15.93c2.98 0 5.41 2.44 5.41 5.41v65.84c0 2.98-2.44 5.41-5.41 5.41h-15.93c-2.98 0-5.41-2.44-5.41-5.41zm130.61 213.92h94.7v-117.05h-72.6c-22.21 20.77-52.04 33.5-84.84 33.5v83.55h32.81v36.75zm57.85-70.76c6.76 0 12.23 5.48 12.23 12.23s-5.48 12.23-12.23 12.23-12.23-5.48-12.23-12.23 5.48-12.23 12.23-12.23zm-41.86 0c6.76 0 12.23 5.48 12.23 12.23s-5.48 12.23-12.23 12.23-12.23-5.48-12.23-12.23 5.48-12.23 12.23-12.23zm-54.1 12.23c0-6.76 5.48-12.23 12.23-12.23s12.23 5.48 12.23 12.23-5.48 12.23-12.23 12.23-12.23-5.48-12.23-12.23zm173.36 107.61c-13.62 18.57-58.4 44.17-79.62 55.74-107.93 58.84-164.65 89.23-303.63 54.46-5.86-1.46-13.79-3.02-25.93-4.17v-123.92c52.97-14.18 72.31-5.22 102.27.61 29.25 5.69 62.23 6.4 91.93 6.68 23.11.22 33.57 9.09 34.53 22.11.52 7.06-1.43 12.91-5.22 17.75-3.13 3.7-7.78 6.71-13.42 9.14-11.66 5.03-27.18 7.58-42.78 8.73-21.39 1.58-42.84.51-55.16-.43-3.92-.29-7.34 2.65-7.63 6.57s2.65 7.34 6.57 7.63c12.74.98 34.94 2.08 57.22.43 17.01-1.26 34.12-4.12 47.4-9.85 14.26-6.15 24.31-15.54 26.11-29.58l115.14-46.24c25.77-10.3 52.93-3.49 52.21 24.35zm-425.18-23.01v132.4c0 6.62-5.42 12.04-12.04 12.04h-40.73c-6.62 0-12.04-5.42-12.04-12.04v-132.4c0-6.62 5.42-12.04 12.04-12.04h40.74c6.62 0 12.04 5.42 12.04 12.04z" fill-rule="evenodd"/>
</g></svg>