<svg id="Layer_1" enable-background="new 0 0 512 512" height="512" viewBox="0 0 512 512" width="512" xmlns="http://www.w3.org/2000/svg">
  <rect width="512" height="512" rx="100" fill="#AC6AFF"/>
  <g transform="translate(76.8 76.8) scale(0.7)">
    <path clip-rule="evenodd" d="m130.971 479.073h261.403c2.754 0 5-2.246 5-5v-15.924c0-11.508-11.784-20.923-26.188-20.923h-46.743v-48.789h106.247c16.889 0 30.708-13.819 30.708-30.709v-159.03l-10.317-4.582c-3.031 1.469-6.146 2.76-9.327 3.867l-6.035 15.68v123.047h-238.049c0 63.535 1.231 42.958 1.231 100.517h-46.743c-14.403 0-26.188 9.415-26.188 20.923v15.924c.001 2.753 2.247 4.999 5.001 4.999zm130.701-312.498c40.041 0 72.5 32.459 72.5 72.5s-32.459 72.5-72.5 72.5c-40.04 0-72.5-32.459-72.5-72.5.001-40.041 32.46-72.5 72.5-72.5zm-9.522 78.895 35.253-35.605c4.173-4.215 10.981-4.227 15.183-.047 4.202 4.178 4.215 10.967.047 15.174-14.295 14.428-28.494 28.951-42.856 43.312-4.199 4.199-11.009 4.199-15.208 0l-23.827-23.827c-4.198-4.198-4.198-11.009 0-15.208 4.198-4.198 11.009-4.198 15.208 0zm-169.809 38.79 5.284-13.727h22.42l5.284 13.727c7.314 1.74 14.299 4.641 20.701 8.582l13.452-5.974 15.854 15.854-5.973 13.45c3.942 6.402 6.842 13.388 8.582 20.703l13.726 5.283v22.421l-13.724 5.282c-1.741 7.316-4.64 14.304-8.583 20.707l5.973 13.448-15.854 15.853-13.451-5.974c-6.402 3.942-13.387 6.842-20.701 8.582l-5.284 13.727h-22.422l-5.283-13.724c-7.315-1.741-14.303-4.64-20.706-8.583l-13.447 5.972-15.854-15.854 5.974-13.452c-3.942-6.401-6.841-13.387-8.582-20.701l-13.726-5.284v-22.421l13.724-5.282c1.741-7.316 4.64-14.304 8.583-20.707l-5.972-13.447 15.854-15.854 13.451 5.974c6.402-3.94 13.388-6.841 20.701-8.581zm16.494 26.589c23.485 0 42.519 19.034 42.519 42.519s-19.034 42.519-42.519 42.519-42.519-19.034-42.519-42.519 19.034-42.519 42.519-42.519zm297.836-264.195 5.284-13.727h22.42l5.284 13.727c7.314 1.74 14.299 4.64 20.701 8.582l13.452-5.974 15.854 15.854-5.973 13.45c3.942 6.402 6.842 13.388 8.582 20.703l13.725 5.282v22.421l-13.724 5.282c-1.741 7.315-4.64 14.304-8.583 20.706l5.973 13.448-15.854 15.853-13.452-5.974c-6.401 3.942-13.387 6.842-20.701 8.582l-5.284 13.727h-22.421l-5.282-13.724c-7.315-1.741-14.303-4.64-20.706-8.583l-13.447 5.972-15.854-15.854 5.974-13.452c-3.942-6.402-6.841-13.387-8.582-20.701l-13.727-5.284v-22.421l13.724-5.282c1.741-7.316 4.641-14.304 8.584-20.706l-5.973-13.448 15.854-15.854 13.451 5.974c6.402-3.939 13.387-6.839 20.701-8.579zm16.494 26.588c-23.485 0-42.519 19.035-42.519 42.519 0 23.485 19.034 42.519 42.519 42.519s42.519-19.034 42.519-42.519c0-23.484-19.034-42.519-42.519-42.519zm-98.835 42.519v22.195l9.05 3.484h-231.496c-2.342 0-4.258 1.917-4.258 4.259v108.834h-10.986l-6.395 16.614c-2.823.982-5.593 2.109-8.299 3.377v-128.054c0-16.89 13.819-30.708 30.708-30.708h221.676z" fill-rule="evenodd"/>
  </g>
</svg>