<svg id="Layer_1" viewBox="0 0 512 512" xmlns="http://www.w3.org/2000/svg" data-name="Layer 1">
  <rect width="512" height="512" rx="100" fill="#7ADB78"/>
<g transform="translate(76.8 76.8) scale(0.7)">
<path clip-rule="evenodd" d="m90.742 223.835c2.16 9.08 5.761 17.753 10.655 25.7l-7.417 16.701 19.683 19.683 16.695-7.415c7.949 4.895 16.625 8.496 25.707 10.657l6.558 17.038h5.918v89.126c-7.799 3.163-13.299 10.81-13.299 19.744 0 11.763 9.536 21.299 21.299 21.299s21.299-9.536 21.299-21.299c0-8.934-5.501-16.581-13.299-19.744v-89.126h5.918l6.56-17.042c9.081-2.161 17.753-5.761 25.7-10.655l16.701 7.417 19.683-19.683-7.415-16.695c4.896-7.949 8.496-16.625 10.657-25.707l17.039-6.558v-27.836l-17.043-6.56c-2.161-9.081-5.761-17.753-10.654-25.701l7.417-16.701-19.683-19.684-16.695 7.415c-7.949-4.896-16.626-8.495-25.708-10.657l-6.558-17.038h-27.836l-6.56 17.041c-9.081 2.161-17.755 5.761-25.703 10.656l-16.699-7.417-19.683 19.683 7.417 16.701c-4.894 7.948-8.494 16.62-10.655 25.7l-17.043 6.561v5.918h-36.4c-4.418 0-8 3.582-8 8v107.233c-7.797 3.163-13.298 10.811-13.298 19.744 0 11.763 9.536 21.299 21.299 21.299s21.299-9.536 21.299-21.299c0-8.934-5.501-16.581-13.299-19.744v-99.233h28.4v5.917zm151.502 159.739h132.48v2.029c0 9.915-8.112 18.027-18.026 18.027h-96.427c-9.914 0-18.027-8.112-18.027-18.027zm96.427 56.111h-60.372c-9.916 0-18.028-8.112-18.028-18.027v-2.028h96.425v2.028c.001 9.917-8.111 18.027-18.025 18.027zm-59.912 16v2.029c0 9.915 8.113 18.027 18.027 18.027h23.396c9.914 0 18.027-8.112 18.027-18.027v-2.029zm29.725-347.795c47.63 0 88.243 30.019 103.967 72.167h36.746v-36.759c-7.799-3.163-13.299-10.81-13.299-19.744 0-11.763 9.536-21.299 21.299-21.299s21.299 9.536 21.299 21.299c0 8.934-5.501 16.581-13.299 19.744v44.759c0 4.418-3.582 8-8 8h-40.12c1.535 7.349 2.344 14.965 2.344 22.77 0 5.21-.287 9.943-.806 14.316h36.342c3.163-7.798 10.811-13.299 19.744-13.299 11.763 0 21.299 9.536 21.299 21.299 0 11.764-9.536 21.299-21.299 21.299-8.934 0-16.581-5.5-19.744-13.299h-39.648c-4.299 14.122-11.402 24.452-18.509 37.087h60.397c4.418 0 8 3.582 8 8v44.759c7.798 3.163 13.299 10.811 13.299 19.744 0 11.763-9.536 21.299-21.299 21.299-11.764 0-21.299-9.536-21.299-21.299 0-8.934 5.5-16.581 13.299-19.744v-36.759h-60.46c-6.644 15.206-12.229 34.995-14.013 65.345h-31.516v-140.865c7.521-3.287 12.777-10.791 12.777-19.524 0-11.764-9.536-21.299-21.299-21.299s-21.299 9.536-21.299 21.299c0 9.132 5.747 16.92 13.821 19.948v140.44h-36.403v-40.904c7.521-3.287 12.777-10.791 12.777-19.524 0-11.763-9.536-21.299-21.299-21.299s-21.299 9.536-21.299 21.299c0 9.132 5.747 16.92 13.822 19.948v40.48h-32.562c-1.975-33.599-8.607-54.258-16.179-70.08l16.902 7.506 35.219-35.219-8.631-19.432c2.357-4.66 4.361-9.492 5.992-14.453l19.837-7.635v-49.807l-19.842-7.637c-1.63-4.958-3.633-9.788-5.989-14.446l8.633-19.438-18.001-18.002c14.6-7.073 30.986-11.041 48.299-11.041zm-76.765-19.081c2.209 3.814.908 8.697-2.906 10.906s-8.697.908-10.906-2.906l-13.066-22.63c-2.209-3.814-.908-8.697 2.906-10.906s8.697-.908 10.906 2.906zm84.765-18.42c0 4.418-3.582 8-8 8s-8-3.582-8-8v-26.131c0-4.418 3.582-8 8-8s8 3.582 8 8zm82.578 26.389c-2.192 3.814-7.061 5.129-10.875 2.938-3.814-2.192-5.129-7.061-2.938-10.875l13.065-22.63c2.192-3.814 7.061-5.129 10.875-2.938 3.814 2.192 5.129 7.061 2.938 10.875zm-271.066 106.579c0-26.813 21.732-48.546 48.546-48.546 26.813 0 48.545 21.732 48.545 48.546s-21.732 48.546-48.545 48.546c-26.814 0-48.546-21.733-48.546-48.546z" fill-rule="evenodd"/>
</g></svg>