<svg id="Layer_1" enable-background="new 0 0 512 512" height="512" viewBox="0 0 512 512" width="512" xmlns="http://www.w3.org/2000/svg">
<rect width="512" height="512" rx="100" fill="#FF776F"/>
<g transform="translate(76.8 76.8) scale(11)" id="_x30_3"><path clip-rule="evenodd" fill-rule="evenodd" d="m29 2h-2c-.5527344 0-1 .4477539-1 1 0 .4301147.2744141.7892456.6555176.9304199l-.2912598.2912598c-3.1890259 3.1890259-7.1491699 5.3180542-11.4559326 6.2443237.6895752.4508057 1.3104248.994873 1.8517456 1.6119995 4.1256104-1.1446533 7.9089355-3.3323364 11.0182495-6.4422607l.2911987-.2911987c.1411133.3809204.5000611.6554565.930481.6554565.5527344 0 1-.4477539 1-1v-2c0-.5522461-.4472656-1-1-1z"/><path clip-rule="evenodd" fill-rule="evenodd" d="m18.7070313 23.2929688c-.390625-.390625-1.0234375-.390625-1.4140625 0l-.2929688.2929687-.6883545-.6883545c1.0539551-1.3551025 1.6883545-3.0519409 1.6883545-4.897583 0-4.4111328-3.5888672-8-8-8s-8 3.5888672-8 8 3.5888672 8 8 8c1.8456421 0 3.5424805-.6343994 4.897583-1.6883545l.6883545.6883545-.2929688.2929688c-.390625.390625-.390625 1.0234375 0 1.4140625l2.5859375 2.5859375c.4550782.4560546 1.0615235.7070312 1.7070313.7070312.6445313 0 1.2509766-.2509766 1.7070313-.7070313.9404297-.9414063.9404297-2.4726563 0-3.4140625zm-14.7070313-5.2929688c0-3.3085938 2.6914063-6 6-6s6 2.6914063 6 6-2.6914063 6-6 6-6-2.6914062-6-6zm15.8789063 9.878418c-.2128906.2133789-.3769531.2104492-.5859375.0004883l-1.8789063-1.8789063.5859375-.5859375 1.8789063 1.8789063c.1611328.161621.1611328.4243164 0 .5854492z"/><path clip-rule="evenodd" fill-rule="evenodd" d="m13 15h-2c-.5527344 0-1 .4477539-1 1 0 .4301147.2744141.7892456.6555176.9304199l-1.6555176 1.6555176-1.2929688-1.2929688c-.390625-.390625-1.0234375-.390625-1.4140625 0l-1.2391967 1.2391968c.0827637.7683105.3270264 1.4848633.71875 2.109375l1.227478-1.227478 1.2929688 1.2929688c.390625.390625 1.0234375.390625 1.4140625 0l2.3624878-2.3624878c.1411132.3809204.500061.6554565.9304809.6554565.5527344 0 1-.4477539 1-1v-2c0-.5522461-.4472656-1-1-1z"/><path clip-rule="evenodd" fill-rule="evenodd" d="m29 9h-3c-.5527344 0-1 .4477539-1 1v2h-2c-.5527344 0-1 .4477539-1 1v2h-2c-.5527344 0-1 .4477539-1 1v4c0 .5522461.4472656 1 1 1h9c.5527344 0 1-.4477539 1-1v-10c0-.5522461-.4472656-1-1-1zm-7 10h-1v-2h1zm3 0h-1v-5h1zm3 0h-1v-8h1z"/></g></svg>