<svg id="Capa_1" enable-background="new 0 0 97.75 97.75" height="97.75" viewBox="0 0 97.75 97.75" width="97.75" xmlns="http://www.w3.org/2000/svg"><g><path d="m48.875 0c-26.993 0-48.875 21.882-48.875 48.875s21.882 48.875 48.875 48.875 48.875-21.882 48.875-48.875-21.882-48.875-48.875-48.875zm-18.313 81.966h-13.74v-44.208h13.74zm-6.867-50.251c-4.404 0-7.969-3.57-7.969-7.968.001-4.394 3.565-7.964 7.969-7.964 4.392 0 7.962 3.57 7.962 7.964 0 4.399-3.571 7.968-7.962 7.968zm58.328 50.251h-13.729v-21.499c0-5.127-.095-11.721-7.142-11.721-7.146 0-8.245 5.584-8.245 11.35v21.869h-13.728v-44.207h13.178v6.041h.185c1.835-3.476 6.315-7.14 13-7.14 13.913 0 16.481 9.156 16.481 21.059z" fill="#757185" /></g><g/><g/><g/><g/><g/><g/><g/><g/><g/><g/><g/><g/><g/><g/><g/></svg>