<svg enable-background="new 0 0 100 100" viewBox="0 0 100 100" xmlns="http://www.w3.org/2000/svg"><g id="Layer_1"/><g id="Layer_2"><path d="m95.515 26.989c-1.093-4.113-4.312-7.353-8.399-8.452-7.409-1.999-37.116-1.999-37.116-1.999s-29.707 0-37.115 1.998c-4.088 1.099-7.307 4.339-8.399 8.452-1.986 7.457-1.986 23.012-1.986 23.012s0 15.556 1.985 23.012c1.092 4.113 4.311 7.352 8.399 8.452 7.409 1.998 37.116 1.998 37.116 1.998s29.708 0 37.116-1.998c4.088-1.1 7.306-4.339 8.399-8.452 1.985-7.457 1.985-23.012 1.985-23.012s0-15.555-1.985-23.011zm-55.231 37.134v-28.246l24.83 14.124z" fill="#757185" /></g></svg>