<svg xmlns="http://www.w3.org/2000/svg" width="792" height="167" viewBox="0 0 792 167">
  <defs>
    <style>
      .cls-1, .cls-2 {
        fill-rule: evenodd;
      }
      .cls-1 {
    fill: white;
  }

      .cls-2 {
        fill: #ab6bff;
        stroke: #000;
        stroke-width: 1px;
      }
    </style>
  </defs>
  <path id="GlobWeb" class="cls-1" d="M261.38,70.586V84.3h23.831a19.846,19.846,0,0,1-8.037,10.96q-5.9,3.991-14.895,3.99-12.139,0-19.5-7.25t-7.362-18.379q0-11.239,7.25-18.6t18.491-7.363A26.394,26.394,0,0,1,273.8,50.69a20.888,20.888,0,0,1,8.487,7.869l13.264-7.644a37.078,37.078,0,0,0-14.163-13.321,41.107,41.107,0,0,0-20.121-5q-17.536,0-29.395,11.915a39.7,39.7,0,0,0-11.859,29.114,39.192,39.192,0,0,0,11.971,28.946q11.971,11.861,30.182,11.859,17.085,0,27.877-10.454t10.792-27.316v-6.07H261.38Zm64.3,42.266V30.794h-14.5v82.059h14.5Zm69.805-28.1a29.732,29.732,0,1,0-59.464,0A29.732,29.732,0,1,0,395.482,84.75Zm-44.964,0a15.179,15.179,0,0,1,4.328-11.128,14.614,14.614,0,0,1,10.848-4.384,14.8,14.8,0,0,1,10.9,4.384,15.077,15.077,0,0,1,4.384,11.128A15.077,15.077,0,0,1,376.6,95.878a14.8,14.8,0,0,1-10.9,4.384,14.614,14.614,0,0,1-10.848-4.384A15.18,15.18,0,0,1,350.518,84.75Zm69.693-21.47V34.166h-14.5v78.686h14.5V106.22q6.408,8.207,18.211,8.206a25.589,25.589,0,0,0,19.39-8.6,29.719,29.719,0,0,0,8.037-21.076,29.721,29.721,0,0,0-8.037-21.077,25.589,25.589,0,0,0-19.39-8.6q-11.8,0-18.211,8.206h0Zm0,21.47A15.557,15.557,0,0,1,424.6,73.34a14.98,14.98,0,0,1,11.129-4.44,15.167,15.167,0,0,1,11.184,4.44,15.449,15.449,0,0,1,4.441,11.409,15.443,15.443,0,0,1-4.441,11.41,15.16,15.16,0,0,1-11.184,4.44,14.973,14.973,0,0,1-11.129-4.44A15.552,15.552,0,0,1,420.211,84.75Zm90.455,28.1,14.8-52.21,14.907,52.21h17.648L578.7,34.166H563.757L548.822,92.357l-16.48-58.191H518.905l-16.411,58.34-15.137-58.34H471.132l20.834,78.686h18.7ZM636.26,90.707a34,34,0,0,0,.562-5.958q0-12.588-8.037-21.133t-20.4-8.543q-13.041,0-21.357,8.487T578.706,84.75q0,12.815,8.431,21.245t22.37,8.431q16.187,0,24.5-12.028l-11.691-6.745q-4.274,5.622-12.59,5.621-12.927,0-15.849-10.567H636.26ZM598.715,71.092a15.259,15.259,0,0,1,9.667-2.979,14.672,14.672,0,0,1,8.825,2.81,13.592,13.592,0,0,1,5.114,8.543H593.657A14.236,14.236,0,0,1,598.715,71.092Zm62.724-7.812V34.166h-14.5v78.686h14.5V106.22q6.407,8.207,18.21,8.206a25.591,25.591,0,0,0,19.391-8.6,29.719,29.719,0,0,0,8.037-21.076,29.721,29.721,0,0,0-8.037-21.077,25.591,25.591,0,0,0-19.391-8.6q-11.8,0-18.21,8.206h0Zm0,21.47a15.553,15.553,0,0,1,4.384-11.409,14.978,14.978,0,0,1,11.128-4.44,15.167,15.167,0,0,1,11.185,4.44,15.452,15.452,0,0,1,4.44,11.409,15.446,15.446,0,0,1-4.44,11.41,15.161,15.161,0,0,1-11.185,4.44,14.971,14.971,0,0,1-11.128-4.44A15.548,15.548,0,0,1,661.439,84.75Z"/>
  <path id="Powered_by_GlobSoft_Inc." data-name="Powered by GlobSoft Inc." class="cls-1" d="M372.142,128.348V149.99h4.022v-7.111h3.584a6.582,6.582,0,0,0,4.954-2.1,7.634,7.634,0,0,0,0-10.327,6.586,6.586,0,0,0-4.954-2.1h-7.606Zm4.022,10.543v-6.555h3.584a2.755,2.755,0,0,1,2.127.928,3.668,3.668,0,0,1,0,4.684,2.732,2.732,0,0,1-2.127.943h-3.584Zm26.693,3.37a8.106,8.106,0,0,0-2.244-5.8,7.511,7.511,0,0,0-10.942,0,8.653,8.653,0,0,0,0,11.594,7.511,7.511,0,0,0,10.942,0A8.106,8.106,0,0,0,402.857,142.261Zm-11.656,0a4.317,4.317,0,0,1,1.122-3.061,3.678,3.678,0,0,1,2.812-1.206,3.724,3.724,0,0,1,2.826,1.206,4.688,4.688,0,0,1,0,6.121,3.724,3.724,0,0,1-2.826,1.206,3.678,3.678,0,0,1-2.812-1.206A4.314,4.314,0,0,1,391.2,142.261Zm27.661,1.8-2.654-9.525h-3.557L410,144.023l-2.494-9.492h-3.975l4.282,15.459H411.5l2.756-9.368,2.756,9.368h3.685l4.249-15.459h-3.608Zm22.083-.157a9.9,9.9,0,0,0,.145-1.638,8.446,8.446,0,0,0-2.083-5.813,6.76,6.76,0,0,0-5.289-2.349,7.2,7.2,0,0,0-5.537,2.334,8.927,8.927,0,0,0,.029,11.671,7.594,7.594,0,0,0,5.8,2.319,7.1,7.1,0,0,0,6.353-3.308l-3.031-1.855a3.759,3.759,0,0,1-3.264,1.545q-3.351,0-4.108-2.906h10.986Zm-9.733-5.4a3.8,3.8,0,0,1,2.506-.819,3.655,3.655,0,0,1,2.287.773,3.775,3.775,0,0,1,1.326,2.35H429.9A3.962,3.962,0,0,1,431.212,138.5Zm16.26-3.973h-3.759V149.99h3.759V142.6a3.63,3.63,0,0,1,1.355-3.185,4.234,4.234,0,0,1,3.075-.742v-4.452a5.059,5.059,0,0,0-2.7.742,4.122,4.122,0,0,0-1.734,2.226v-2.659ZM467.7,143.9a9.9,9.9,0,0,0,.145-1.638,8.446,8.446,0,0,0-2.083-5.813,6.76,6.76,0,0,0-5.289-2.349,7.2,7.2,0,0,0-5.537,2.334,8.93,8.93,0,0,0,.029,11.671,7.594,7.594,0,0,0,5.8,2.319,7.1,7.1,0,0,0,6.353-3.308l-3.031-1.855a3.759,3.759,0,0,1-3.264,1.545q-3.351,0-4.108-2.906H467.7Zm-9.733-5.4a3.8,3.8,0,0,1,2.506-.819,3.655,3.655,0,0,1,2.287.773,3.775,3.775,0,0,1,1.326,2.35h-7.431A3.962,3.962,0,0,1,457.963,138.5Zm23.429-2.148a5.512,5.512,0,0,0-4.721-2.257,6.468,6.468,0,0,0-5.027,2.365,9.108,9.108,0,0,0,0,11.594,6.471,6.471,0,0,0,5.027,2.365,5.512,5.512,0,0,0,4.721-2.257v1.824h3.759V128.348h-3.759v8.008Zm-8.072,5.905a4.387,4.387,0,0,1,1.151-3.138,3.816,3.816,0,0,1,2.9-1.222,3.769,3.769,0,0,1,2.885,1.222,4.9,4.9,0,0,1,0,6.276,3.768,3.768,0,0,1-2.885,1.221,3.815,3.815,0,0,1-2.9-1.221A4.387,4.387,0,0,1,473.32,142.261Zm26.314-5.905v-8.008h-3.759V149.99h3.759v-1.824a5.512,5.512,0,0,0,4.721,2.257,6.473,6.473,0,0,0,5.027-2.365,9.108,9.108,0,0,0,0-11.594,6.47,6.47,0,0,0-5.027-2.365,5.512,5.512,0,0,0-4.721,2.257h0Zm0,5.905a4.425,4.425,0,0,1,1.136-3.138,3.772,3.772,0,0,1,2.885-1.222,3.818,3.818,0,0,1,2.9,1.222,4.853,4.853,0,0,1,0,6.276,3.817,3.817,0,0,1-2.9,1.221,3.771,3.771,0,0,1-2.885-1.221A4.425,4.425,0,0,1,499.634,142.261Zm20.177,2.66-3.8-10.39H511.9l5.974,14.964a4.776,4.776,0,0,1-1.413,2.288,3.617,3.617,0,0,1-2.4.68v3.71a6.629,6.629,0,0,0,4.671-1.346,10.249,10.249,0,0,0,3.013-4.812l5.313-15.484h-4.022Zm26.274-6.556v3.772h6.178a5.449,5.449,0,0,1-2.084,3.014,6.456,6.456,0,0,1-3.861,1.1,6.676,6.676,0,0,1-5.056-1.994,7.015,7.015,0,0,1-1.909-5.055,7.229,7.229,0,0,1,1.88-5.117,6.252,6.252,0,0,1,4.793-2.025,6.523,6.523,0,0,1,3.279.835,5.555,5.555,0,0,1,2.2,2.164l3.439-2.1a9.886,9.886,0,0,0-3.672-3.664,10.175,10.175,0,0,0-5.216-1.376,10.031,10.031,0,0,0-7.621,3.277,11.269,11.269,0,0,0-3.074,8.008,11.117,11.117,0,0,0,3.1,7.961,10.341,10.341,0,0,0,7.825,3.262,9.639,9.639,0,0,0,7.227-2.876,10.314,10.314,0,0,0,2.8-7.512v-1.67H546.085Zm16.668,11.625V127.421h-3.759V149.99h3.759Zm18.1-7.729a8.11,8.11,0,0,0-2.244-5.8,7.512,7.512,0,0,0-10.943,0,8.653,8.653,0,0,0,0,11.594,7.512,7.512,0,0,0,10.943,0A8.11,8.11,0,0,0,580.85,142.261Zm-11.657,0a4.317,4.317,0,0,1,1.122-3.061,3.679,3.679,0,0,1,2.812-1.206,3.726,3.726,0,0,1,2.827,1.206,4.691,4.691,0,0,1,0,6.121,3.726,3.726,0,0,1-2.827,1.206,3.679,3.679,0,0,1-2.812-1.206A4.314,4.314,0,0,1,569.193,142.261Zm18.067-5.905v-8.008H583.5V149.99h3.759v-1.824a5.513,5.513,0,0,0,4.721,2.257,6.471,6.471,0,0,0,5.027-2.365,9.1,9.1,0,0,0,0-11.594,6.468,6.468,0,0,0-5.027-2.365,5.513,5.513,0,0,0-4.721,2.257h0Zm0,5.905a4.422,4.422,0,0,1,1.137-3.138,3.771,3.771,0,0,1,2.885-1.222,3.816,3.816,0,0,1,2.9,1.222,4.853,4.853,0,0,1,0,6.276,3.815,3.815,0,0,1-2.9,1.221A3.77,3.77,0,0,1,588.4,145.4,4.422,4.422,0,0,1,587.26,142.261Zm26.97,6.4a5.947,5.947,0,0,0,2.055-4.761,6.4,6.4,0,0,0-.219-1.716,6.312,6.312,0,0,0-.524-1.345,4.238,4.238,0,0,0-.889-1.082,10.276,10.276,0,0,0-1.035-.834,7.711,7.711,0,0,0-1.282-.665q-0.831-.356-1.311-0.526t-1.414-.479a10.873,10.873,0,0,1-3.074-1.376,2.007,2.007,0,0,1-.8-1.654,1.946,1.946,0,0,1,.714-1.561,2.952,2.952,0,0,1,1.967-.6,4.076,4.076,0,0,1,3.9,2.783l3.381-2.072a8.5,8.5,0,0,0-2.929-3.571,7.541,7.541,0,0,0-4.356-1.283,6.888,6.888,0,0,0-4.736,1.747,5.954,5.954,0,0,0-1.967,4.684,6.343,6.343,0,0,0,.495,2.6,4.683,4.683,0,0,0,1.443,1.84,9.85,9.85,0,0,0,1.894,1.159,20.47,20.47,0,0,0,2.317.866,14.355,14.355,0,0,1,3.439,1.375,2.014,2.014,0,0,1,.961,1.778,2.035,2.035,0,0,1-.787,1.639,3.861,3.861,0,0,1-2.477.649,4.591,4.591,0,0,1-4.691-3.308l-3.439,2.133a7.624,7.624,0,0,0,2.914,3.911,8.715,8.715,0,0,0,5.1,1.438A7.923,7.923,0,0,0,614.23,148.66Zm19.568-6.4a8.106,8.106,0,0,0-2.244-5.8,7.511,7.511,0,0,0-10.942,0,8.65,8.65,0,0,0,0,11.594,7.511,7.511,0,0,0,10.942,0A8.106,8.106,0,0,0,633.8,142.261Zm-11.656,0a4.316,4.316,0,0,1,1.121-3.061,3.682,3.682,0,0,1,2.813-1.206A3.724,3.724,0,0,1,628.9,139.2a4.688,4.688,0,0,1,0,6.121,3.724,3.724,0,0,1-2.826,1.206,3.682,3.682,0,0,1-2.813-1.206A4.314,4.314,0,0,1,622.142,142.261Zm21.681-14.346q-3.41-.216-5.129,1.484a6.7,6.7,0,0,0-1.72,4.978v0.154h-2.1v3.834h2.1V149.99h3.76V138.365h3.089v-3.834h-3.089v-0.154q0-2.875,3.089-2.628v-3.834Zm10.519,6.616h-3.293V130.2l-3.759,1.206v3.122h-2.536v3.834h2.536V144.8q0,3.185,1.588,4.421t5.464,0.773v-3.617a15.4,15.4,0,0,1-1.807.015,1.68,1.68,0,0,1-1.107-.417,1.585,1.585,0,0,1-.379-1.175v-6.431h3.293v-3.834Zm10.345,15.459h4.021V128.348h-4.021V149.99Zm11.394-13.727v-1.732h-3.76V149.99h3.76v-8.348a4.143,4.143,0,0,1,.874-2.875,3,3,0,0,1,2.331-.958,2.774,2.774,0,0,1,2.1.819,3.28,3.28,0,0,1,.787,2.365v9h3.759V140.5a6.694,6.694,0,0,0-1.559-4.7,5.126,5.126,0,0,0-3.948-1.7,4.759,4.759,0,0,0-4.342,2.164h0Zm23.866,13.062a7.538,7.538,0,0,0,2.71-2.921l-3.264-1.979a3.325,3.325,0,0,1-1.326,1.5,3.811,3.811,0,0,1-2.025.541,3.653,3.653,0,0,1-2.8-1.19,4.247,4.247,0,0,1-1.108-3.014,4.293,4.293,0,0,1,1.108-3.046,3.871,3.871,0,0,1,4.793-.633,3.425,3.425,0,0,1,1.326,1.514l3.235-2.009a7.024,7.024,0,0,0-2.652-2.906,7.552,7.552,0,0,0-9.369,1.267,8.778,8.778,0,0,0,0,11.625A7.513,7.513,0,0,0,699.947,149.325Zm8.568-1.561a2.613,2.613,0,0,0-.729-1.855,2.364,2.364,0,0,0-3.5,0,2.727,2.727,0,0,0,0,3.71,2.364,2.364,0,0,0,3.5,0A2.611,2.611,0,0,0,708.515,147.764Z"/>
  <path id="GlobWeb_1" data-name="GlobWeb 1" class="cls-2" d="M121.066,17.709L146.6,33.418V48.146L134.813,56l-8.837-4.909v-10.8l-12.765-7.855V50.109L92.59,62.873V97.236L76.88,106.073l-7.855-5.891v-10.8l8.837-6.873V67.782l-15.711,10.8L49.386,69.746,39.566,77.6,55.277,90.364v7.855l-11.783,7.855L29.747,97.236,28.765,66.8,47.422,56,48.4,41.273l25.53,16.691,20.62-13.745L82.771,36.364l-8.837,5.891L55.277,29.491,75.9,17.709l17.675,9.818V12.8L75.9,2,35.639,25.564v21.6L16,60.909v43.2l19.639,13.746v21.6L74.916,164V150.255L49.386,131.6V117.855L60.187,110l9.819,4.909v10.8l11.783,8.836V116.873l21.6-12.764,0.981-35.345,13.747-7.854,8.838,5.891V77.6L119.1,83.491,118.12,97.236l15.711-9.818,11.783,7.855,9.82-6.873L139.723,76.618V68.764l12.765-9.818,13.747,9.818,0.982,29.455-19.639,12.764v13.745l-25.53-15.709-18.656,13.746,10.8,6.872,7.855-5.891,18.657,12.764-19.639,11.782-17.674-8.836v14.727L119.1,164l40.259-24.545v-21.6L179,105.091v-43.2L159.361,49.127v-21.6L121.066,2V17.709Z"/>
  <path id="TM" class="cls-1" d="M733.421,34.232H712.088v5.873H719.4V55.59h6.708V40.105h7.312V34.232ZM735,55.59h6.393V46.131h0.533l2.591,9.458h4.988l2.591-9.458h0.533V55.59h6.393V34.232h-8.451l-3.318,12.179h-0.484l-3.317-12.179H735V55.59Z"/>
</svg>
